<svg width="16" height="17" viewBox="0 0 16 17" fill="none" xmlns="http://www.w3.org/2000/svg">
<path fill-rule="evenodd" clip-rule="evenodd" d="M13.82 4.91333L13.7267 4.74667C13.6063 4.54513 13.4365 4.37762 13.2333 4.26L8.76 1.68C8.55746 1.5625 8.32753 1.50041 8.09333 1.5H7.9C7.6658 1.50041 7.43586 1.5625 7.23333 1.68L2.76 4.26667C2.55798 4.38351 2.39017 4.55131 2.27333 4.75333L2.18 4.92C2.0625 5.12256 2.00041 5.35249 2 5.58667V10.7533C2.00041 10.9875 2.0625 11.2175 2.18 11.42L2.27333 11.5867C2.39319 11.7863 2.56033 11.9535 2.76 12.0733L7.24 14.6533C7.44153 14.7733 7.67213 14.8355 7.90666 14.8333H8.09333C8.32753 14.8329 8.55746 14.7709 8.76 14.6533L13.2333 12.0667C13.4373 11.9525 13.6058 11.784 13.72 11.58L13.82 11.4133C13.9361 11.2102 13.9981 10.9807 14 10.7467V5.58C13.9996 5.34583 13.9375 5.11589 13.82 4.91333ZM7.9 2.83333H8.09333L12 5.08667L8 7.39333L4 5.08667L7.9 2.83333ZM8.66666 13.1667L12.5667 10.9133L12.6667 10.7467V6.24L8.66666 8.55333V13.1667Z" fill="#30BFBF"/>
</svg>
